# xmcd
#
# Track frame offsets:
#	150
#	31536
#	73070
#	97714
#	129035
#	161527
#	206438
#	226455
#	258569
#
# Disc length: 4447 seconds
#
# Revision: 1
# Processed by: cddbd v1.5.2PL0 Copyright (c) Steve Scherf et al.
# Submitted via: audiograbber 1.83.01
#
DISCID=66115d09
DTITLE=Freddie King - Going Down at Onkel Po's - D2
DYEAR=2015
DGENRE=Blues
TTITLE0=Sweet Home Chicago
TTITLE1=You're The One
TTITLE2=Woke Up This Morning
TTITLE3=Ain't Nobody's Business
TTITLE4=Kings Thing
TTITLE5=Going Down
TTITLE6=Things That I Used To Do
TTITLE7=Let The Good Times Roll
TTITLE8=Stormy Monday
EXTD=
EXTT0=
EXTT1=
EXTT2=
EXTT3=
EXTT4=
EXTT5=
EXTT6=
EXTT7=
EXTT8=
PLAYORDER=
